<svg width="30" height="30" viewBox="0 0 30 30" fill="none" xmlns="http://www.w3.org/2000/svg">
<g id="CameraFill">
<rect width="30" height="30" rx="15" fill="#CFCFCF"/>
<path id="Vector" d="M18 16C18 16.7956 17.6839 17.5587 17.1213 18.1213C16.5587 18.6839 15.7956 19 15 19C14.2044 19 13.4413 18.6839 12.8787 18.1213C12.3161 17.5587 12 16.7956 12 16C12 15.2044 12.3161 14.4413 12.8787 13.8787C13.4413 13.3161 14.2044 13 15 13C15.7956 13 16.5587 13.3161 17.1213 13.8787C17.6839 14.4413 18 15.2044 18 16Z" fill="#5A5A5A"/>
<path id="Vector_2" d="M8.25 11.1667C7.65326 11.1667 7.08097 11.3949 6.65901 11.8013C6.23705 12.2076 6 12.7587 6 13.3333V19.8333C6 20.408 6.23705 20.9591 6.65901 21.3654C7.08097 21.7717 7.65326 22 8.25 22H21.75C22.3467 22 22.919 21.7717 23.341 21.3654C23.7629 20.9591 24 20.408 24 19.8333V13.3333C24 12.7587 23.7629 12.2076 23.341 11.8013C22.919 11.3949 22.3467 11.1667 21.75 11.1667H20.4315C19.8348 11.1665 19.2626 10.9382 18.8407 10.5318L17.9093 9.63483C17.4874 9.22848 16.9152 9.00012 16.3185 9H13.6815C13.0848 9.00012 12.5126 9.22848 12.0908 9.63483L11.1592 10.5318C10.7374 10.9382 10.1652 11.1665 9.5685 11.1667H8.25ZM8.8125 13.3333C8.66332 13.3333 8.52024 13.2763 8.41475 13.1747C8.30926 13.0731 8.25 12.9353 8.25 12.7917C8.25 12.648 8.30926 12.5102 8.41475 12.4087C8.52024 12.3071 8.66332 12.25 8.8125 12.25C8.96168 12.25 9.10476 12.3071 9.21025 12.4087C9.31574 12.5102 9.375 12.648 9.375 12.7917C9.375 12.9353 9.31574 13.0731 9.21025 13.1747C9.10476 13.2763 8.96168 13.3333 8.8125 13.3333ZM18.9375 16.0417C18.9375 17.0473 18.5227 18.0117 17.7842 18.7228C17.0458 19.4339 16.0443 19.8333 15 19.8333C13.9557 19.8333 12.9542 19.4339 12.2158 18.7228C11.4773 18.0117 11.0625 17.0473 11.0625 16.0417C11.0625 15.0361 11.4773 14.0716 12.2158 13.3606C12.9542 12.6495 13.9557 12.25 15 12.25C16.0443 12.25 17.0458 12.6495 17.7842 13.3606C18.5227 14.0716 18.9375 15.0361 18.9375 16.0417Z" fill="#5A5A5A"/>
</g>
</svg>
